<?xml version="1.0" encoding="UTF-8" standalone="no"?>
<!-- Created with Inkscape (http://www.inkscape.org/) -->

<svg
   width="512"
   height="512"
   viewBox="0 0 512 512"
   version="1.1"
   id="svg5"
   inkscape:version="1.2.2 (732a01da63, 2022-12-09)"
   sodipodi:docname="Logo.svg"
   xmlns:inkscape="http://www.inkscape.org/namespaces/inkscape"
   xmlns:sodipodi="http://sodipodi.sourceforge.net/DTD/sodipodi-0.dtd"
   xmlns="http://www.w3.org/2000/svg"
   xmlns:svg="http://www.w3.org/2000/svg">
  <sodipodi:namedview
     id="namedview7"
     pagecolor="#ffffff"
     bordercolor="#000000"
     borderopacity="0.25"
     inkscape:showpageshadow="2"
     inkscape:pageopacity="0.0"
     inkscape:pagecheckerboard="0"
     inkscape:deskcolor="#d1d1d1"
     inkscape:document-units="px"
     showgrid="false"
     showguides="true"
     inkscape:zoom="0.5"
     inkscape:cx="324"
     inkscape:cy="322"
     inkscape:window-width="1366"
     inkscape:window-height="705"
     inkscape:window-x="-8"
     inkscape:window-y="-8"
     inkscape:window-maximized="1"
     inkscape:current-layer="g2913" />
  <defs
     id="defs2">
    <inkscape:path-effect
       effect="fill_between_many"
       method="originald"
       linkedpaths="#text2032,0,1|"
       id="path-effect2943" />
    <inkscape:path-effect
       effect="fill_between_many"
       method="originald"
       linkedpaths="#text2032,0,1|"
       id="path-effect2164" />
  </defs>
  <g
     id="g2909"
     inkscape:label="2"
     style="display:none">
    <g
       inkscape:label="Fondo"
       inkscape:groupmode="layer"
       id="layer1">
      <circle
         style="fill:#e54b4b;fill-opacity:1;stroke-width:0.992596"
         id="path217"
         cx="256"
         cy="256"
         r="256"
         inkscape:label="path217" />
    </g>
    <g
       inkscape:groupmode="layer"
       id="layer2"
       inkscape:label="Letras"
       transform="translate(18.911148,-103.81629)">
      <path
         inkscape:original-d="M 0,0"
         inkscape:path-effect="#path-effect2164"
         d="m 128.12916,498.65308 c 1.64062,0.0937 3.375,0.14062 5.10937,0.0469 1.125,0.14063 2.0625,0.0469 2.85938,-0.32812 3.04687,-0.42188 5.76562,-1.3125 8.10937,-2.71875 h 0.0469 l 0.0469,-0.0469 v -3.375 c -3.09375,-3.09375 -5.39062,-8.4375 -6.9375,-16.03125 -1.54687,-7.59375 -2.4375,-16.03125 -2.67187,-25.35937 0.23437,-9.28125 1.125,-17.71875 2.67187,-25.3125 1.54688,-7.59375 3.84375,-12.9375 6.9375,-16.07813 v -3.32812 c -3.70312,-2.10938 -7.96875,-3.1875 -12.79687,-3.1875 -6.375,0.0469 -11.29688,1.125 -14.76563,3.1875 l -0.0469,3.32812 c 2.67187,1.73438 4.73437,5.25 6.14062,10.54688 1.35938,5.29687 2.20313,11.48437 2.53125,18.5625 0.32813,7.07812 0.1875,14.01562 -0.42187,20.90625 -0.1875,2.34375 -0.46875,4.54687 -0.75,6.65625 -3.04688,-4.64063 -6.375,-9.5625 -9.9375,-14.67188 -4.21875,-6.04687 -8.20313,-12 -12,-17.76562 -3.79688,-5.76563 -6.937505,-11.01563 -9.32813,-15.65625 -2.390625,-4.64063 -3.65625,-8.34375 -3.703125,-11.0625 -3.1875,-2.15625 -7.453125,-3.46875 -12.75,-3.89063 -5.34375,-0.42187 -10.59375,0.14063 -15.703125,1.64063 -5.15625,1.5 -9.09375,4.03125 -11.765625,7.59375 -0.5625,0.70312 -0.84375,1.45312 -0.84375,2.25 -0.04687,0.79687 0.234375,1.40625 0.796875,1.78125 1.78125,0.89062 3.328125,3.70312 4.640625,8.53125 1.265625,4.82812 2.203125,10.64062 2.8125,17.53125 0.5625,6.89062 0.703125,13.875 0.421875,20.90625 -0.328125,7.07812 -1.171875,13.26562 -2.53125,18.5625 -1.40625,5.34375 -3.46875,8.85937 -6.140625,10.54687 v 3.375 c 1.921875,1.17188 4.5,2.01563 7.78125,2.57813 3.28125,0.60937 6.703125,0.70312 10.3125,0.375 3.609375,-0.32813 6.75,-1.3125 9.515625,-2.95313 v -3.375 c -2.578125,-2.53125 -4.640625,-6.70312 -6.09375,-12.51562 -1.5,-5.76563 -2.53125,-12.42188 -3.046875,-19.875 -0.5625,-7.45313 -0.75,-14.90625 -0.5625,-22.45313 3.796875,6.42188 8.15625,13.21875 13.078125,20.29688 3.703125,5.39062 7.078125,10.5 10.125,15.32812 3.046875,4.82813 5.15625,9 6.421875,12.42188 1.265625,3.46875 1.03125,5.8125 -0.609375,6.98437 v 3.04688 c 8.625,2.10937 17.0625,3.23437 25.3125,3.28125 2.57813,0 5.20313,-0.0937 7.73438,-0.28125 z"
         id="path2166"
         class="UnoptimicedTransforms"
         style="fill:#000e38" />
      <g
         id="g2192"
         transform="translate(0,21.97912)"
         style="fill:#000e38">
        <g
           aria-label="Mar"
           id="text383"
           style="font-size:96px;font-family:'Dream to Berich DEMO (FOR USE P';-inkscape-font-specification:'Dream to Berich DEMO (FOR USE P';fill:#000e38"
           transform="translate(-2.8817854)">
          <g
             id="g2183"
             style="fill:#000e38">
            <path
               d="m 27.891128,232.67126 c -1.687192,1.82217 -1.687192,4.85911 -0.134976,5.80394 12.755169,5.06158 18.289158,98.46451 -1.14729,109.53249 l 0.06748,4.85911 c 7.693593,4.79162 28.209844,7.15369 39.750235,0 v -4.85911 C 55.08865,337.68207 51.714267,300.9013 52.389143,269.04712 c 17.276841,29.89703 33.271421,72.2118 22.473391,79.23052 v 4.38669 c 18.76158,6.00641 42.652206,6.47881 64.720666,0 v -4.38669 c -0.94483,-0.67488 -1.95715,-1.48473 -2.96946,-2.42956 -5.73646,-11.00049 9.51576,-53.5852 21.46108,-86.04678 5.26404,29.5596 4.18424,80.24284 -9.78572,88.20639 l 0.0675,4.85911 c 33.21162,-9.42835 73.36419,55.39051 108.6173,9.13716 8.51026,-11.16575 9.77197,-9.10693 -6.62503,-6.07657 -78.31358,14.47327 -44.50774,-102.81778 -38.1639,-126.43847 -0.94483,-11.67536 -64.09833,-10.2477 -64.3008,3.18234 -0.5399,1.28227 1.34976,4.45419 2.63203,6.47882 -7.55862,25.37536 -15.72463,56.28471 -27.8724,79.77042 -15.72463,-32.25911 -31.719216,-77.47584 -31.449256,-93.94283 -5.60147,-9.24581 -52.640374,-7.76108 -63.303425,7.69359 z"
               id="path2081"
               sodipodi:nodetypes="sccccccccccccccsscccccss"
               style="fill:#000e38;stroke-width:1.43974" />
            <path
               d="m 272.1077,296.86698 c 0.80985,9.11084 -0.26995,16.19704 -3.23941,21.3261 -3.03694,5.06159 -6.41132,8.43597 -10.19063,9.98818 -3.84681,1.55222 -5.93892,0.47242 -6.34384,-3.17191 -0.47242,-3.64434 1.21478,-8.2335 5.06157,-13.70001 3.7793,-5.39901 8.70591,-10.25812 14.71231,-14.44236 z m 50.34579,4.52168 c -0.87733,-13.43005 -5.26403,-24.56551 -13.16008,-33.47388 -7.96355,-8.90837 -20.71872,-13.90246 -38.333,-14.91478 -17.61428,-0.94483 -31.38177,2.56453 -41.43742,10.73054 -7.55862,8.36848 -9.3133,15.79212 -5.33154,22.27093 3.98178,6.5463 10.79803,9.3133 20.38128,8.43596 8.36847,-1.61971 13.49753,-4.99409 15.45468,-10.12315 1.88966,-5.12907 1.34975,-9.98818 -1.55222,-14.50985 -2.90196,-4.52168 -7.49113,-6.61379 -13.63251,-6.27636 9.3133,-2.1596 16.73694,-1.82216 22.27093,1.01233 5.53399,2.83448 7.69359,7.42364 6.54631,13.83496 -2.02463,9.44827 -10.25813,15.31971 -24.76798,17.81674 -14.50984,2.42956 -25.03792,6.88375 -31.58423,13.36256 -6.54629,6.47882 -9.04335,14.71231 -7.6261,24.70049 1.41724,9.98817 8.166,16.33201 20.38128,19.09901 12.21526,2.69951 22.47338,1.07981 30.84185,-5.06158 8.30099,-6.07389 15.72464,-17.88422 22.27093,-35.49851 0.40493,-1.01231 0.67488,-1.41723 0.80986,-1.28226 0.1349,0.20246 0.20247,0.80985 0.1349,1.82216 -4.25172,13.09261 -4.72414,23.14828 -1.55221,30.167 3.17191,6.95122 9.8532,10.66305 20.11132,11.13545 10.19063,0.40493 19.23398,-2.02463 27.06255,-7.28866 7.82857,-5.33152 12.28276,-11.27044 13.29508,-17.88423 h -4.38671 c -0.26995,2.02463 -1.14728,3.64433 -2.56453,4.85911 -1.48473,1.14729 -3.17191,1.48473 -4.99409,0.87734 -1.82216,-0.53991 -3.30688,-2.15961 -4.31921,-4.72414 -2.02463,-6.0064 -3.44186,-15.65714 -4.31921,-29.08718 z"
               id="path2083"
               style="fill:#000e38;stroke-width:1.43974" />
            <path
               d="m 381.32357,302.52554 c -0.87733,0.4724 -1.34975,-2.02463 -1.28226,-7.55862 0.0675,-5.46651 1.01231,-11.20296 2.83449,-17.20936 1.88965,-5.93892 3.37438,-10.46059 4.52166,-13.43004 -0.5399,-4.85911 -4.85911,-7.49114 -12.89013,-7.82857 -8.09852,-0.33745 -15.65714,0.5399 -22.81084,2.56453 -7.15369,2.02463 -11.87782,4.11674 -14.37488,6.34384 -1.14728,1.0798 -1.75467,2.22709 -1.88965,3.44186 -0.1349,1.21478 0.47242,2.02463 1.82217,2.56453 4.52167,2.36208 7.82857,9.11085 10.05566,20.17882 2.2271,11.06798 2.56453,22.33841 1.01232,33.94629 -1.48473,11.5404 -5.60148,19.36897 -12.28275,23.35073 l 0.0675,4.99409 c 2.56453,2.15961 9.04335,3.64434 19.43645,4.38671 10.46059,0.74235 21.05615,0.80985 31.85418,0.0675 10.79802,-0.74236 18.01921,-2.22708 21.66354,-4.45418 v -4.99409 c -10.52807,-11.94531 -15.65714,-25.37536 -15.38718,-40.29013 0.26995,-14.91478 5.73644,-25.17291 16.39949,-30.7069 0.1349,5.73646 1.0798,10.19065 2.83448,13.22759 2.42956,5.73646 6.95124,9.11084 13.49754,10.05567 6.47881,0.94482 12.6202,-0.6074 18.35664,-4.79164 5.73646,-4.18423 8.57094,-11.06797 8.57094,-20.7187 -0.33744,-5.93892 -2.63202,-10.4606 -6.81626,-13.70001 -4.18423,-3.2394 -9.04335,-5.12906 -14.64482,-5.73644 -12.0803,-0.1349 -21.39359,1.95714 -27.80491,6.27635 -6.47882,4.3867 -11.40543,9.8532 -14.91479,16.39951 -3.50935,6.54629 -6.07389,14.37486 -7.82856,23.62068 z"
               id="path2085"
               style="fill:#000e38;stroke-width:1.43974" />
          </g>
        </g>
        <text
           xml:space="preserve"
           style="font-style:normal;font-variant:normal;font-weight:normal;font-stretch:normal;font-size:96px;font-family:'Dream to Berich DEMO (FOR USE P';-inkscape-font-specification:'Dream to Berich DEMO (FOR USE P';fill:#000e38;fill-opacity:1"
           x="59.702957"
           y="456.20056"
           id="text2032"
           class="UnoptimicedTransforms"
           transform="translate(-11.870677,21.035896)"><tspan
             id="tspan2030"
             x="59.702957"
             y="456.20056"
             sodipodi:role="line">Nails</tspan></text>
      </g>
      <path
         sodipodi:type="star"
         style="fill:#000e38;fill-opacity:1"
         id="path2785"
         inkscape:flatsided="false"
         sodipodi:sides="4"
         sodipodi:cx="256"
         sodipodi:cy="66.316193"
         sodipodi:r1="19.504763"
         sodipodi:r2="7.0217147"
         sodipodi:arg1="-1.5707963"
         sodipodi:arg2="-0.78539816"
         inkscape:rounded="0.1"
         inkscape:randomized="0.007"
         d="m 255.8679,46.871875 c 1.53546,-0.006 4.02734,13.297646 5.12808,14.374508 1.10074,1.076863 14.4618,3.660597 14.45246,5.194288 -0.009,1.533692 -13.37458,3.720083 -14.4542,4.807923 -1.07961,1.087841 -3.44437,14.539617 -4.98015,14.526755 -1.53577,-0.01286 -3.76591,-13.497772 -4.855,-14.587105 -1.08909,-1.089333 -14.72465,-3.270587 -14.73031,-4.806349 -0.006,-1.535761 13.653,-3.828416 14.73204,-4.922795 1.07904,-1.094379 3.17162,-14.581181 4.70708,-14.587225 z"
         transform="matrix(1.3550466,0,0,1.6006487,-14.276958,78.660555)" />
      <path
         sodipodi:type="star"
         style="fill:#000e38;fill-opacity:1"
         id="path2841"
         inkscape:flatsided="false"
         sodipodi:sides="4"
         sodipodi:cx="256"
         sodipodi:cy="66.316193"
         sodipodi:r1="19.504763"
         sodipodi:r2="7.0217147"
         sodipodi:arg1="-1.5707963"
         sodipodi:arg2="-0.78539816"
         inkscape:rounded="0.1"
         inkscape:randomized="0"
         d="m 256,46.81143 c 1.53641,0 3.8787,13.453258 4.9651,14.539661 1.0864,1.086402 14.53966,3.428697 14.53966,4.965102 0,1.536405 -13.45326,3.8787 -14.53966,4.965102 -1.0864,1.086402 -3.4287,14.53966 -4.9651,14.53966 -1.53641,0 -3.8787,-13.453258 -4.9651,-14.53966 -1.0864,-1.086403 -14.53966,-3.428698 -14.53966,-4.965103 0,-1.536405 13.45326,-3.878699 14.53966,-4.965101 C 252.1213,60.264688 254.4636,46.81143 256,46.81143 Z"
         transform="matrix(-0.59326866,0,0,-0.70079859,440.74479,262.43106)" />
    </g>
  </g>
  <g
     id="g2939"
     inkscape:label="1"
     style="display:inline">
    <g
       inkscape:label="Fondo"
       inkscape:groupmode="layer"
       id="g2913">
      <circle
         style="fill:#000e38;fill-opacity:1;stroke-width:0.992596"
         id="circle2911"
         cx="256"
         cy="256"
         r="256"
         inkscape:label="path217" />
    </g>
    <g
       inkscape:groupmode="layer"
       id="g2937"
       inkscape:label="Letras"
       transform="translate(18.911148,-103.81629)">
      <path
         inkscape:original-d="M 0,0"
         inkscape:path-effect="#path-effect2943"
         d="m 128.12916,498.65308 c 1.64062,0.0937 3.375,0.14062 5.10937,0.0469 1.125,0.14063 2.0625,0.0469 2.85938,-0.32812 3.04687,-0.42188 5.76562,-1.3125 8.10937,-2.71875 h 0.0469 l 0.0469,-0.0469 v -3.375 c -3.09375,-3.09375 -5.39062,-8.4375 -6.9375,-16.03125 -1.54687,-7.59375 -2.4375,-16.03125 -2.67187,-25.35937 0.23437,-9.28125 1.125,-17.71875 2.67187,-25.3125 1.54688,-7.59375 3.84375,-12.9375 6.9375,-16.07813 v -3.32812 c -3.70312,-2.10938 -7.96875,-3.1875 -12.79687,-3.1875 -6.375,0.0469 -11.29688,1.125 -14.76563,3.1875 l -0.0469,3.32812 c 2.67187,1.73438 4.73437,5.25 6.14062,10.54688 1.35938,5.29687 2.20313,11.48437 2.53125,18.5625 0.32813,7.07812 0.1875,14.01562 -0.42187,20.90625 -0.1875,2.34375 -0.46875,4.54687 -0.75,6.65625 -3.04688,-4.64063 -6.375,-9.5625 -9.9375,-14.67188 -4.21875,-6.04687 -8.20313,-12 -12,-17.76562 -3.79688,-5.76563 -6.937505,-11.01563 -9.32813,-15.65625 -2.390625,-4.64063 -3.65625,-8.34375 -3.703125,-11.0625 -3.1875,-2.15625 -7.453125,-3.46875 -12.75,-3.89063 -5.34375,-0.42187 -10.59375,0.14063 -15.703125,1.64063 -5.15625,1.5 -9.09375,4.03125 -11.765625,7.59375 -0.5625,0.70312 -0.84375,1.45312 -0.84375,2.25 -0.04687,0.79687 0.234375,1.40625 0.796875,1.78125 1.78125,0.89062 3.328125,3.70312 4.640625,8.53125 1.265625,4.82812 2.203125,10.64062 2.8125,17.53125 0.5625,6.89062 0.703125,13.875 0.421875,20.90625 -0.328125,7.07812 -1.171875,13.26562 -2.53125,18.5625 -1.40625,5.34375 -3.46875,8.85937 -6.140625,10.54687 v 3.375 c 1.921875,1.17188 4.5,2.01563 7.78125,2.57813 3.28125,0.60937 6.703125,0.70312 10.3125,0.375 3.609375,-0.32813 6.75,-1.3125 9.515625,-2.95313 v -3.375 c -2.578125,-2.53125 -4.640625,-6.70312 -6.09375,-12.51562 -1.5,-5.76563 -2.53125,-12.42188 -3.046875,-19.875 -0.5625,-7.45313 -0.75,-14.90625 -0.5625,-22.45313 3.796875,6.42188 8.15625,13.21875 13.078125,20.29688 3.703125,5.39062 7.078125,10.5 10.125,15.32812 3.046875,4.82813 5.15625,9 6.421875,12.42188 1.265625,3.46875 1.03125,5.8125 -0.609375,6.98437 v 3.04688 c 8.625,2.10937 17.0625,3.23437 25.3125,3.28125 2.57813,0 5.20313,-0.0937 7.73438,-0.28125 z"
         id="path2915"
         class="UnoptimicedTransforms" />
      <g
         id="g2931"
         transform="translate(0,21.97912)">
        <g
           aria-label="Mar"
           id="g2925"
           style="font-size:96px;font-family:'Dream to Berich DEMO (FOR USE P';-inkscape-font-specification:'Dream to Berich DEMO (FOR USE P';fill:#e54b4b"
           transform="translate(-2.8817854)">
          <g
             id="g2923">
            <path
               d="m 27.891128,232.67126 c -1.687192,1.82217 -1.687192,4.85911 -0.134976,5.80394 12.755169,5.06158 18.289158,98.46451 -1.14729,109.53249 l 0.06748,4.85911 c 7.693593,4.79162 28.209844,7.15369 39.750235,0 v -4.85911 C 55.08865,337.68207 51.714267,300.9013 52.389143,269.04712 c 17.276841,29.89703 33.271421,72.2118 22.473391,79.23052 v 4.38669 c 18.76158,6.00641 42.652206,6.47881 64.720666,0 v -4.38669 c -0.94483,-0.67488 -1.95715,-1.48473 -2.96946,-2.42956 -5.73646,-11.00049 9.51576,-53.5852 21.46108,-86.04678 5.26404,29.5596 4.18424,80.24284 -9.78572,88.20639 l 0.0675,4.85911 c 33.21162,-9.42835 73.36419,55.39051 108.6173,9.13716 8.51026,-11.16575 9.77197,-9.10693 -6.62503,-6.07657 -78.31358,14.47327 -44.50774,-102.81778 -38.1639,-126.43847 -0.94483,-11.67536 -64.09833,-10.2477 -64.3008,3.18234 -0.5399,1.28227 1.34976,4.45419 2.63203,6.47882 -7.55862,25.37536 -15.72463,56.28471 -27.8724,79.77042 -15.72463,-32.25911 -31.719216,-77.47584 -31.449256,-93.94283 -5.60147,-9.24581 -52.640374,-7.76108 -63.303425,7.69359 z"
               id="path2917"
               sodipodi:nodetypes="sccccccccccccccsscccccss"
               style="stroke-width:1.43974" />
            <path
               d="m 272.1077,296.86698 c 0.80985,9.11084 -0.26995,16.19704 -3.23941,21.3261 -3.03694,5.06159 -6.41132,8.43597 -10.19063,9.98818 -3.84681,1.55222 -5.93892,0.47242 -6.34384,-3.17191 -0.47242,-3.64434 1.21478,-8.2335 5.06157,-13.70001 3.7793,-5.39901 8.70591,-10.25812 14.71231,-14.44236 z m 50.34579,4.52168 c -0.87733,-13.43005 -5.26403,-24.56551 -13.16008,-33.47388 -7.96355,-8.90837 -20.71872,-13.90246 -38.333,-14.91478 -17.61428,-0.94483 -31.38177,2.56453 -41.43742,10.73054 -7.55862,8.36848 -9.3133,15.79212 -5.33154,22.27093 3.98178,6.5463 10.79803,9.3133 20.38128,8.43596 8.36847,-1.61971 13.49753,-4.99409 15.45468,-10.12315 1.88966,-5.12907 1.34975,-9.98818 -1.55222,-14.50985 -2.90196,-4.52168 -7.49113,-6.61379 -13.63251,-6.27636 9.3133,-2.1596 16.73694,-1.82216 22.27093,1.01233 5.53399,2.83448 7.69359,7.42364 6.54631,13.83496 -2.02463,9.44827 -10.25813,15.31971 -24.76798,17.81674 -14.50984,2.42956 -25.03792,6.88375 -31.58423,13.36256 -6.54629,6.47882 -9.04335,14.71231 -7.6261,24.70049 1.41724,9.98817 8.166,16.33201 20.38128,19.09901 12.21526,2.69951 22.47338,1.07981 30.84185,-5.06158 8.30099,-6.07389 15.72464,-17.88422 22.27093,-35.49851 0.40493,-1.01231 0.67488,-1.41723 0.80986,-1.28226 0.1349,0.20246 0.20247,0.80985 0.1349,1.82216 -4.25172,13.09261 -4.72414,23.14828 -1.55221,30.167 3.17191,6.95122 9.8532,10.66305 20.11132,11.13545 10.19063,0.40493 19.23398,-2.02463 27.06255,-7.28866 7.82857,-5.33152 12.28276,-11.27044 13.29508,-17.88423 h -4.38671 c -0.26995,2.02463 -1.14728,3.64433 -2.56453,4.85911 -1.48473,1.14729 -3.17191,1.48473 -4.99409,0.87734 -1.82216,-0.53991 -3.30688,-2.15961 -4.31921,-4.72414 -2.02463,-6.0064 -3.44186,-15.65714 -4.31921,-29.08718 z"
               id="path2919"
               style="stroke-width:1.43974" />
            <path
               d="m 381.32357,302.52554 c -0.87733,0.4724 -1.34975,-2.02463 -1.28226,-7.55862 0.0675,-5.46651 1.01231,-11.20296 2.83449,-17.20936 1.88965,-5.93892 3.37438,-10.46059 4.52166,-13.43004 -0.5399,-4.85911 -4.85911,-7.49114 -12.89013,-7.82857 -8.09852,-0.33745 -15.65714,0.5399 -22.81084,2.56453 -7.15369,2.02463 -11.87782,4.11674 -14.37488,6.34384 -1.14728,1.0798 -1.75467,2.22709 -1.88965,3.44186 -0.1349,1.21478 0.47242,2.02463 1.82217,2.56453 4.52167,2.36208 7.82857,9.11085 10.05566,20.17882 2.2271,11.06798 2.56453,22.33841 1.01232,33.94629 -1.48473,11.5404 -5.60148,19.36897 -12.28275,23.35073 l 0.0675,4.99409 c 2.56453,2.15961 9.04335,3.64434 19.43645,4.38671 10.46059,0.74235 21.05615,0.80985 31.85418,0.0675 10.79802,-0.74236 18.01921,-2.22708 21.66354,-4.45418 v -4.99409 c -10.52807,-11.94531 -15.65714,-25.37536 -15.38718,-40.29013 0.26995,-14.91478 5.73644,-25.17291 16.39949,-30.7069 0.1349,5.73646 1.0798,10.19065 2.83448,13.22759 2.42956,5.73646 6.95124,9.11084 13.49754,10.05567 6.47881,0.94482 12.6202,-0.6074 18.35664,-4.79164 5.73646,-4.18423 8.57094,-11.06797 8.57094,-20.7187 -0.33744,-5.93892 -2.63202,-10.4606 -6.81626,-13.70001 -4.18423,-3.2394 -9.04335,-5.12906 -14.64482,-5.73644 -12.0803,-0.1349 -21.39359,1.95714 -27.80491,6.27635 -6.47882,4.3867 -11.40543,9.8532 -14.91479,16.39951 -3.50935,6.54629 -6.07389,14.37486 -7.82856,23.62068 z"
               id="path2921"
               style="stroke-width:1.43974" />
          </g>
        </g>
        <text
           xml:space="preserve"
           style="font-style:normal;font-variant:normal;font-weight:normal;font-stretch:normal;font-size:96px;font-family:'Dream to Berich DEMO (FOR USE P';-inkscape-font-specification:'Dream to Berich DEMO (FOR USE P';fill:#e54b4b;fill-opacity:1"
           x="59.702957"
           y="456.20056"
           id="text2929"
           class="UnoptimicedTransforms"
           transform="translate(-11.870677,21.035896)"><tspan
             id="tspan2927"
             x="59.702957"
             y="456.20056"
             sodipodi:role="line">Nails</tspan></text>
      </g>
      <path
         sodipodi:type="star"
         style="fill:#e54b4b;fill-opacity:1"
         id="path2933"
         inkscape:flatsided="false"
         sodipodi:sides="4"
         sodipodi:cx="256"
         sodipodi:cy="66.316193"
         sodipodi:r1="19.504763"
         sodipodi:r2="7.0217147"
         sodipodi:arg1="-1.5707963"
         sodipodi:arg2="-0.78539816"
         inkscape:rounded="0.1"
         inkscape:randomized="0.007"
         d="m 255.8679,46.871875 c 1.53546,-0.006 4.02734,13.297646 5.12808,14.374508 1.10074,1.076863 14.4618,3.660597 14.45246,5.194288 -0.009,1.533692 -13.37458,3.720083 -14.4542,4.807923 -1.07961,1.087841 -3.44437,14.539617 -4.98015,14.526755 -1.53577,-0.01286 -3.76591,-13.497772 -4.855,-14.587105 -1.08909,-1.089333 -14.72465,-3.270587 -14.73031,-4.806349 -0.006,-1.535761 13.653,-3.828416 14.73204,-4.922795 1.07904,-1.094379 3.17162,-14.581181 4.70708,-14.587225 z"
         transform="matrix(1.3550466,0,0,1.6006487,-14.276958,78.660555)" />
      <path
         sodipodi:type="star"
         style="fill:#e54b4b;fill-opacity:1"
         id="path2935"
         inkscape:flatsided="false"
         sodipodi:sides="4"
         sodipodi:cx="256"
         sodipodi:cy="66.316193"
         sodipodi:r1="19.504763"
         sodipodi:r2="7.0217147"
         sodipodi:arg1="-1.5707963"
         sodipodi:arg2="-0.78539816"
         inkscape:rounded="0.1"
         inkscape:randomized="0"
         d="m 256,46.81143 c 1.53641,0 3.8787,13.453258 4.9651,14.539661 1.0864,1.086402 14.53966,3.428697 14.53966,4.965102 0,1.536405 -13.45326,3.8787 -14.53966,4.965102 -1.0864,1.086402 -3.4287,14.53966 -4.9651,14.53966 -1.53641,0 -3.8787,-13.453258 -4.9651,-14.53966 -1.0864,-1.086403 -14.53966,-3.428698 -14.53966,-4.965103 0,-1.536405 13.45326,-3.878699 14.53966,-4.965101 C 252.1213,60.264688 254.4636,46.81143 256,46.81143 Z"
         transform="matrix(-0.59326866,0,0,-0.70079859,440.74479,262.43106)" />
    </g>
  </g>
</svg>
