<?xml version="1.0" encoding="UTF-8" standalone="no"?>
<!-- Created with Inkscape (http://www.inkscape.org/) -->

<svg
   width="48"
   height="48"
   viewBox="0 0 48 48"
   version="1.1"
   id="svg5"
   inkscape:version="1.2.2 (732a01da63, 2022-12-09)"
   sodipodi:docname="svgLogoSolo.svg"
   xmlns:inkscape="http://www.inkscape.org/namespaces/inkscape"
   xmlns:sodipodi="http://sodipodi.sourceforge.net/DTD/sodipodi-0.dtd"
   xmlns="http://www.w3.org/2000/svg"
   xmlns:svg="http://www.w3.org/2000/svg">
  <sodipodi:namedview
     id="namedview7"
     pagecolor="#ffffff"
     bordercolor="#000000"
     borderopacity="0.25"
     inkscape:showpageshadow="2"
     inkscape:pageopacity="0.0"
     inkscape:pagecheckerboard="0"
     inkscape:deskcolor="#d1d1d1"
     inkscape:document-units="px"
     showgrid="false"
     inkscape:zoom="3.8669902"
     inkscape:cx="3.3617877"
     inkscape:cy="-33.100679"
     inkscape:window-width="1366"
     inkscape:window-height="705"
     inkscape:window-x="-8"
     inkscape:window-y="-8"
     inkscape:window-maximized="1"
     inkscape:current-layer="layer1" />
  <defs
     id="defs2" />
  <g
     inkscape:label="Capa 1"
     inkscape:groupmode="layer"
     id="layer1">
    <g
       id="g2931"
       transform="matrix(0.10772368,0,0,0.10772368,-1.5400836,-13.526095)"
       style="display:inline;fill:#000000">
      <g
         aria-label="Mar"
         id="g2925"
         style="font-size:96px;font-family:'Dream to Berich DEMO (FOR USE P';-inkscape-font-specification:'Dream to Berich DEMO (FOR USE P';fill:#000000"
         transform="translate(-2.8817854)">
        <g
           id="g2923"
           style="fill:#000000">
          <path
             d="m 27.891128,232.67126 c -1.687192,1.82217 -1.687192,4.85911 -0.134976,5.80394 12.755169,5.06158 18.289158,98.46451 -1.14729,109.53249 l 0.06748,4.85911 c 7.693593,4.79162 28.209844,7.15369 39.750235,0 v -4.85911 C 55.08865,337.68207 51.714267,300.9013 52.389143,269.04712 c 17.276841,29.89703 33.271421,72.2118 22.473391,79.23052 v 4.38669 c 18.76158,6.00641 42.652206,6.47881 64.720666,0 v -4.38669 c -0.94483,-0.67488 -1.95715,-1.48473 -2.96946,-2.42956 -5.73646,-11.00049 9.51576,-53.5852 21.46108,-86.04678 5.26404,29.5596 4.18424,80.24284 -9.78572,88.20639 l 0.0675,4.85911 c 33.21162,-9.42835 73.36419,55.39051 108.6173,9.13716 8.51026,-11.16575 9.77197,-9.10693 -6.62503,-6.07657 -78.31358,14.47327 -44.50774,-102.81778 -38.1639,-126.43847 -0.94483,-11.67536 -64.09833,-10.2477 -64.3008,3.18234 -0.5399,1.28227 1.34976,4.45419 2.63203,6.47882 -7.55862,25.37536 -15.72463,56.28471 -27.8724,79.77042 -15.72463,-32.25911 -31.719216,-77.47584 -31.449256,-93.94283 -5.60147,-9.24581 -52.640374,-7.76108 -63.303425,7.69359 z"
             id="path2917"
             sodipodi:nodetypes="sccccccccccccccsscccccss"
             style="stroke-width:1.43974;fill:#000000" />
          <path
             d="m 272.1077,296.86698 c 0.80985,9.11084 -0.26995,16.19704 -3.23941,21.3261 -3.03694,5.06159 -6.41132,8.43597 -10.19063,9.98818 -3.84681,1.55222 -5.93892,0.47242 -6.34384,-3.17191 -0.47242,-3.64434 1.21478,-8.2335 5.06157,-13.70001 3.7793,-5.39901 8.70591,-10.25812 14.71231,-14.44236 z m 50.34579,4.52168 c -0.87733,-13.43005 -5.26403,-24.56551 -13.16008,-33.47388 -7.96355,-8.90837 -20.71872,-13.90246 -38.333,-14.91478 -17.61428,-0.94483 -31.38177,2.56453 -41.43742,10.73054 -7.55862,8.36848 -9.3133,15.79212 -5.33154,22.27093 3.98178,6.5463 10.79803,9.3133 20.38128,8.43596 8.36847,-1.61971 13.49753,-4.99409 15.45468,-10.12315 1.88966,-5.12907 1.34975,-9.98818 -1.55222,-14.50985 -2.90196,-4.52168 -7.49113,-6.61379 -13.63251,-6.27636 9.3133,-2.1596 16.73694,-1.82216 22.27093,1.01233 5.53399,2.83448 7.69359,7.42364 6.54631,13.83496 -2.02463,9.44827 -10.25813,15.31971 -24.76798,17.81674 -14.50984,2.42956 -25.03792,6.88375 -31.58423,13.36256 -6.54629,6.47882 -9.04335,14.71231 -7.6261,24.70049 1.41724,9.98817 8.166,16.33201 20.38128,19.09901 12.21526,2.69951 22.47338,1.07981 30.84185,-5.06158 8.30099,-6.07389 15.72464,-17.88422 22.27093,-35.49851 0.40493,-1.01231 0.67488,-1.41723 0.80986,-1.28226 0.1349,0.20246 0.20247,0.80985 0.1349,1.82216 -4.25172,13.09261 -4.72414,23.14828 -1.55221,30.167 3.17191,6.95122 9.8532,10.66305 20.11132,11.13545 10.19063,0.40493 19.23398,-2.02463 27.06255,-7.28866 7.82857,-5.33152 12.28276,-11.27044 13.29508,-17.88423 h -4.38671 c -0.26995,2.02463 -1.14728,3.64433 -2.56453,4.85911 -1.48473,1.14729 -3.17191,1.48473 -4.99409,0.87734 -1.82216,-0.53991 -3.30688,-2.15961 -4.31921,-4.72414 -2.02463,-6.0064 -3.44186,-15.65714 -4.31921,-29.08718 z"
             id="path2919"
             style="stroke-width:1.43974;fill:#000000" />
          <path
             d="m 381.32357,302.52554 c -0.87733,0.4724 -1.34975,-2.02463 -1.28226,-7.55862 0.0675,-5.46651 1.01231,-11.20296 2.83449,-17.20936 1.88965,-5.93892 3.37438,-10.46059 4.52166,-13.43004 -0.5399,-4.85911 -4.85911,-7.49114 -12.89013,-7.82857 -8.09852,-0.33745 -15.65714,0.5399 -22.81084,2.56453 -7.15369,2.02463 -11.87782,4.11674 -14.37488,6.34384 -1.14728,1.0798 -1.75467,2.22709 -1.88965,3.44186 -0.1349,1.21478 0.47242,2.02463 1.82217,2.56453 4.52167,2.36208 7.82857,9.11085 10.05566,20.17882 2.2271,11.06798 2.56453,22.33841 1.01232,33.94629 -1.48473,11.5404 -5.60148,19.36897 -12.28275,23.35073 l 0.0675,4.99409 c 2.56453,2.15961 9.04335,3.64434 19.43645,4.38671 10.46059,0.74235 21.05615,0.80985 31.85418,0.0675 10.79802,-0.74236 18.01921,-2.22708 21.66354,-4.45418 v -4.99409 c -10.52807,-11.94531 -15.65714,-25.37536 -15.38718,-40.29013 0.26995,-14.91478 5.73644,-25.17291 16.39949,-30.7069 0.1349,5.73646 1.0798,10.19065 2.83448,13.22759 2.42956,5.73646 6.95124,9.11084 13.49754,10.05567 6.47881,0.94482 12.6202,-0.6074 18.35664,-4.79164 5.73646,-4.18423 8.57094,-11.06797 8.57094,-20.7187 -0.33744,-5.93892 -2.63202,-10.4606 -6.81626,-13.70001 -4.18423,-3.2394 -9.04335,-5.12906 -14.64482,-5.73644 -12.0803,-0.1349 -21.39359,1.95714 -27.80491,6.27635 -6.47882,4.3867 -11.40543,9.8532 -14.91479,16.39951 -3.50935,6.54629 -6.07389,14.37486 -7.82856,23.62068 z"
             id="path2921"
             style="stroke-width:1.43974;fill:#000000" />
        </g>
      </g>
      <text
         xml:space="preserve"
         style="font-style:normal;font-variant:normal;font-weight:normal;font-stretch:normal;font-size:96px;font-family:'Dream to Berich DEMO (FOR USE P';-inkscape-font-specification:'Dream to Berich DEMO (FOR USE P';fill:#000000;fill-opacity:1"
         x="59.702957"
         y="456.20056"
         id="text2929"
         class="UnoptimicedTransforms"
         transform="translate(-11.870677,21.035896)"><tspan
           id="tspan2927"
           x="59.702957"
           y="456.20056"
           sodipodi:role="line">Nails</tspan></text>
    </g>
  </g>
</svg>
